<svg viewBox="0 0 350 125.95662498121213" xmlns:xlink="http://www.w3.org/1999/xlink" xmlns="http://www.w3.org/2000/svg" height="125.95662498121213" width="350" style="width: 350px; height: 125.957px; position: absolute; top: 50%; left: 50%; transform: translate(-50%, -50%) scale(1); z-index: 0; cursor: pointer; overflow: visible;"><defs id="SvgjsDefs1001"><linearGradient id="SvgjsLinearGradient1011"><stop id="SvgjsStop1012" stop-color="#006838" offset="0"></stop><stop id="SvgjsStop1013" stop-color="#96cf24" offset="1"></stop></linearGradient><linearGradient id="SvgjsLinearGradient1011"><stop id="SvgjsStop1012" stop-color="#006838" offset="0"></stop><stop id="SvgjsStop1013" stop-color="#96cf24" offset="1"></stop></linearGradient><linearGradient id="SvgjsLinearGradient1011"><stop id="SvgjsStop1012" stop-color="#006838" offset="0"></stop><stop id="SvgjsStop1013" stop-color="#96cf24" offset="1"></stop></linearGradient></defs><g id="SvgjsG1007" featurekey="aMgJeN-0" transform="matrix(0.8590787738715354,0,0,0.8590787738715354,132.36864174676418,11.63882210143635)" fill="#545454"><path xmlns="http://www.w3.org/2000/svg" d="M51.558,44.756c-0.12-0.04-0.242-0.046-0.366-0.023c-0.23,0.044-0.648,0.149-1.192,0.402  c-0.544-0.253-0.962-0.358-1.191-0.401c-0.124-0.023-0.247-0.017-0.366,0.023c-1.857,0.617-3.243,3.078-3.243,3.078  s0.538,0.705,2.537-0.159c0.506-0.219,1.071-0.245,1.597-0.082c0.216,0.067,0.45,0.117,0.665,0.115  c0.215,0.001,0.45-0.049,0.665-0.115c0.526-0.163,1.091-0.136,1.597,0.082c2.001,0.864,2.539,0.159,2.539,0.159  S53.414,45.374,51.558,44.756z" fill="#545454"></path><path xmlns="http://www.w3.org/2000/svg" d="M51.236,48.512c0,0-0.648,0.358-1.236,0.323c-0.588,0.035-1.236-0.323-1.236-0.323c-2.083-1.041-3.164,0.323-3.164,0.323  s1.482,2.882,4.4,2.882s4.4-2.882,4.4-2.882S53.319,47.471,51.236,48.512z" fill="#545454"></path><path xmlns="http://www.w3.org/2000/svg" d="M89.184,83.274c-0.823-1.283-2.122-2.186-3.611-2.51L73.42,78.121c0,0-10.039,6.471-22.792,9.054  c-0.412,0.084-0.844,0.084-1.257,0c-12.753-2.583-22.792-9.054-22.792-9.054l-12.153,2.643c-1.489,0.324-2.788,1.227-3.611,2.51  l-2.567,4.003c-0.145,0.227-0.022,0.529,0.241,0.59l40.536,9.275c0.641,0.147,1.307,0.147,1.948,0l40.536-9.275  c0.263-0.06,0.386-0.363,0.241-0.59L89.184,83.274z" fill="#545454"></path><polygon xmlns="http://www.w3.org/2000/svg" points="67.649,18.843 32.351,18.843 31.557,22.465 68.443,22.465 " fill="#545454"></polygon><path xmlns="http://www.w3.org/2000/svg" d="M64.884,6.226c-0.374-1.705-1.846-2.946-3.59-3.025L52.712,2.81c-1.807-0.082-3.617-0.082-5.424,0l-8.582,0.391  c-1.744,0.079-3.216,1.321-3.59,3.025l-2.509,11.448h34.787L64.884,6.226z" fill="#545454"></path><path xmlns="http://www.w3.org/2000/svg" d="M96.445,35.929L68.7,23.635l0-0.002H31.3l0,0.002L3.555,35.929c-0.299,0.133-0.492,0.429-0.492,0.757v0.853  c0,0.219,0.177,0.396,0.396,0.396H27.34l-1.14,10.2h5.157l0.243,1.7h6.061c0.916,1.418,2.094,2.706,3.575,3.527  c0.117,1.143,0.538,5.791,0.246,10.475l-1.844,0.353c-0.137,0.026-0.242,0.128-0.266,0.265c-0.185,1.054-1.028,5.612-2.14,7.831  c-0.173,0.345-0.452,0.62-0.796,0.796l-8.257,4.251c0,0,10.032,6.322,21.53,7.616c0.192,0.022,0.388,0.022,0.58,0  c11.5-1.294,21.531-7.616,21.531-7.616l-8.257-4.251c-0.344-0.177-0.623-0.452-0.796-0.797c-1.112-2.22-1.955-6.776-2.14-7.83  c-0.024-0.137-0.129-0.239-0.266-0.265l-1.844-0.354c-0.292-4.686,0.13-9.336,0.246-10.477c1.479-0.825,2.656-2.11,3.571-3.526H68.4  l0.243-1.7H73.8l-1.14-10.2h23.881c0.219,0,0.396-0.177,0.396-0.396v-0.853C96.937,36.359,96.744,36.062,96.445,35.929z M50,67.335  c-2.72,0.076-5.588-0.841-7.658-1.698c0.488-4.645,0.147-9.584-0.041-11.66l2.027,1.157c1.412,0.805,2.936,1.37,4.529,1.678  c0.379,0.073,0.761,0.109,1.142,0.109c0.382,0,0.763-0.036,1.142-0.109c1.595-0.308,3.118-0.872,4.53-1.678l2.026-1.157  c-0.189,2.076-0.529,7.015-0.041,11.661C55.587,66.494,52.72,67.411,50,67.335z M58.091,52.601l-2.915,1.664  c-1.315,0.751-2.737,1.277-4.224,1.564c-0.632,0.122-1.272,0.124-1.904,0c-1.486-0.287-2.907-0.813-4.223-1.564l-2.934-1.674  c-4.619-2.396-6.134-10.268-6.148-10.345l-0.78-4.311H50h15.039l-0.78,4.309C64.244,42.323,62.729,50.196,58.091,52.601z" fill="#545454"></path></g><g id="SvgjsG1008" featurekey="8L6ael-0" transform="matrix(1.663092046405268,0,0,1.663092046405268,-0.18731774097382706,92.69478405310676)" fill="url(&quot;#SvgjsLinearGradient1011&quot;)"><path d="M14.78 18.86 q0.14 0.32 -0.07 0.65 t-0.57 0.33 l-13.32 0 q-0.18 0 -0.34 -0.09 t-0.24 -0.23 q-0.22 -0.32 -0.06 -0.66 l0.62 -1.46 q0.08 -0.2 0.26 -0.32 t0.38 -0.12 l9.32 0 l-3.28 -7.84 l-2.68 6.4 q-0.08 0.2 -0.25 0.31 t-0.39 0.11 l-1.68 0 q-0.38 0 -0.6 -0.32 q-0.08 -0.14 -0.1 -0.32 t0.04 -0.34 l4.06 -9.52 q0.08 -0.2 0.25 -0.32 t0.39 -0.12 l1.92 0 q0.22 0 0.39 0.12 t0.25 0.32 z M20.548 5 q0.28 0 0.49 0.21 t0.21 0.49 l0 13.4 q0 0.28 -0.21 0.49 t-0.49 0.21 l-1.52 0 q-0.28 0 -0.49 -0.21 t-0.21 -0.49 l0 -13.4 q0 -0.28 0.21 -0.49 t0.49 -0.21 l1.52 0 z M27.848 16.94 q0.3 0 0.5 0.21 t0.2 0.49 l0 1.46 q0 0.28 -0.2 0.49 t-0.5 0.21 l-4.66 0 q-0.3 0 -0.5 -0.21 t-0.2 -0.49 l0 -1.46 q0 -0.28 0.2 -0.49 t0.5 -0.21 l4.66 0 z M34.476 5 q0.28 0 0.49 0.21 t0.21 0.49 l0 13.4 q0 0.28 -0.21 0.49 t-0.49 0.21 l-1.52 0 q-0.28 0 -0.49 -0.21 t-0.21 -0.49 l0 -13.4 q0 -0.28 0.21 -0.49 t0.49 -0.21 l1.52 0 z M41.775999999999996 16.94 q0.3 0 0.5 0.21 t0.2 0.49 l0 1.46 q0 0.28 -0.2 0.49 t-0.5 0.21 l-4.66 0 q-0.3 0 -0.5 -0.21 t-0.2 -0.49 l0 -1.46 q0 -0.28 0.2 -0.49 t0.5 -0.21 l4.66 0 z M65.28399999999999 5.300000000000001 q0.2 0.28 0.1 0.62 l-4.22 13.54 q-0.06 0.22 -0.25 0.36 t-0.43 0.14 l-1.74 0 q-0.22 0 -0.41 -0.14 t-0.25 -0.34 l-3 -9.28 l-2.98 9.28 q-0.08 0.22 -0.26 0.35 t-0.42 0.13 l-1.74 0 q-0.36 0 -0.58 -0.28 q-0.2 -0.34 -0.08 -0.64 l4.52 -13.56 q0.06 -0.2 0.25 -0.34 t0.41 -0.14 l1.76 0 q0.24 0 0.42 0.14 t0.26 0.36 l2.96 9.2 l2.8 -9.2 q0.08 -0.22 0.27 -0.36 t0.41 -0.14 l1.62 0 q0.38 0 0.58 0.3 z M47.764 5.5 l1.14 3.74 q0.12 0.34 -0.1 0.63 t-0.58 0.29 l-1.58 0 q-0.24 0 -0.43 -0.14 t-0.25 -0.36 l-1.16 -3.74 q-0.12 -0.34 0.1 -0.63 t0.56 -0.29 l1.62 0 q0.24 0 0.43 0.14 t0.25 0.36 z M79.572 16.96 q0.3 0 0.5 0.21 t0.2 0.51 l0 1.46 q0 0.28 -0.2 0.49 t-0.5 0.21 l-9.88 0 q-0.28 0 -0.49 -0.21 t-0.21 -0.49 l0 -1.46 q0 -0.3 0.21 -0.51 t0.49 -0.21 l9.88 0 z M69.692 13.86 q-0.28 0 -0.49 -0.21 t-0.21 -0.49 l0 -1.5 q0 -0.28 0.21 -0.49 t0.49 -0.21 l8.98 0 q0.3 0 0.51 0.21 t0.21 0.49 l0 1.5 q0 0.28 -0.21 0.49 t-0.51 0.21 l-8.98 0 z M79.572 5 q0.3 0 0.5 0.21 t0.2 0.49 l0 1.46 q0 0.3 -0.2 0.51 t-0.5 0.21 l-9.88 0 q-0.28 0 -0.49 -0.21 t-0.21 -0.51 l0 -1.46 q0 -0.28 0.21 -0.49 t0.49 -0.21 l9.88 0 z M97.62 18.86 q0.14 0.32 -0.07 0.65 t-0.57 0.33 l-13.32 0 q-0.18 0 -0.34 -0.09 t-0.24 -0.23 q-0.22 -0.32 -0.06 -0.66 l0.62 -1.46 q0.08 -0.2 0.26 -0.32 t0.38 -0.12 l9.32 0 l-3.28 -7.84 l-2.68 6.4 q-0.08 0.2 -0.25 0.31 t-0.39 0.11 l-1.68 0 q-0.38 0 -0.6 -0.32 q-0.08 -0.14 -0.1 -0.32 t0.04 -0.34 l4.06 -9.52 q0.08 -0.2 0.25 -0.32 t0.39 -0.12 l1.92 0 q0.22 0 0.39 0.12 t0.25 0.32 z M110.648 14.1 l3.02 4.62 q0.22 0.36 0.02 0.72 q-0.08 0.16 -0.25 0.26 t-0.35 0.1 l-1.82 0 q-0.18 0 -0.34 -0.09 t-0.24 -0.23 l-3.04 -4.82 l-3.56 0 l0 4.44 q0 0.28 -0.21 0.49 t-0.49 0.21 l-1.52 0 q-0.28 0 -0.49 -0.21 t-0.21 -0.49 l0 -6.58 q0 -0.28 0.21 -0.49 t0.49 -0.21 l6.16 0 q1.76 0 2.34 -1 q0.2 -0.32 0.2 -0.92 q0 -0.94 -0.62 -1.48 q-0.64 -0.58 -1.84 -0.58 l-6.24 0 q-0.28 0 -0.49 -0.21 t-0.21 -0.49 l0 -1.44 q0 -0.28 0.21 -0.49 t0.49 -0.21 l6.42 0 q2.34 0 3.74 1.32 q1.46 1.32 1.46 3.58 q0 1.46 -0.64 2.49 t-1.86 1.57 z M133.604 12.42 q0.86 0.54 1.31 1.32 t0.45 1.74 q0 2.26 -1.72 3.46 q-1.16 0.84 -3.14 1.06 l-0.08 0 q-0.28 0 -0.46 -0.18 q-0.24 -0.22 -0.24 -0.52 l0 -1.44 q0 -0.26 0.18 -0.46 t0.44 -0.24 q0.94 -0.1 1.46 -0.44 q0.4 -0.24 0.54 -0.62 q0.08 -0.22 0.08 -0.56 q0 -0.22 -0.08 -0.38 t-0.28 -0.3 q-0.58 -0.4 -1.5 -0.68 l-0.32 -0.1 q-1 -0.28 -1.84 -0.46 q-0.18 -0.04 -0.58 -0.14 l-0.22 -0.06 q-0.72 -0.18 -1.52 -0.5 q-1.18 -0.5 -1.94 -1.26 q-0.88 -0.88 -0.88 -2.32 q0 -1.98 1.52 -3.22 q1.04 -0.88 2.92 -1.12 q0.32 -0.04 0.55 0.18 t0.23 0.52 l0 1.44 q0 0.26 -0.16 0.46 t-0.41 0.23 t-0.51 0.11 q-0.58 0.22 -0.82 0.43 t-0.34 0.43 q-0.1 0.34 -0.1 0.64 q0 0.16 0.18 0.34 q0.28 0.28 0.82 0.5 q0.24 0.1 0.84 0.3 l2.5 0.62 l0.12 0.04 q0.94 0.26 1.36 0.4 q0.94 0.32 1.64 0.78 z M130.264 7.9 q-0.24 -0.06 -0.39 -0.25 t-0.15 -0.45 l0 -1.46 q0 -0.32 0.26 -0.54 q0.1 -0.1 0.26 -0.13 t0.3 -0.01 q1.76 0.28 2.86 1.2 q1.5 1.24 1.6 3.16 q0.02 0.28 -0.19 0.51 t-0.51 0.23 l-1.56 0 q-0.26 0 -0.46 -0.18 t-0.22 -0.44 q-0.08 -0.52 -0.34 -0.86 q-0.42 -0.5 -1.3 -0.76 q-0.06 0 -0.08 -0.02 l-0.08 0 z M127.924 17.08 q0.24 0.04 0.4 0.24 t0.16 0.44 l0 1.48 q0 0.32 -0.24 0.54 q-0.2 0.16 -0.46 0.16 l-0.1 0 q-1.86 -0.28 -3.06 -1.22 q-1.56 -1.24 -1.76 -3.46 q-0.04 -0.32 0.18 -0.55 t0.52 -0.23 l1.58 0 q0.28 0 0.48 0.19 t0.22 0.47 q0.06 1 0.98 1.54 q0.42 0.24 1.1 0.4 z M149.59199999999998 5 q0.28 0 0.48 0.21 t0.2 0.49 l0 1.44 q0 0.28 -0.2 0.49 t-0.48 0.21 l-3.94 0 l0 11.14 q0 0.28 -0.21 0.49 t-0.49 0.21 l-1.5 0 q-0.3 0 -0.5 -0.21 t-0.2 -0.49 l0 -11.14 l-3.94 0 q-0.28 0 -0.49 -0.21 t-0.21 -0.49 l0 -1.44 q0 -0.28 0.21 -0.49 t0.49 -0.21 l10.78 0 z M165.78 5 q0.28 0 0.49 0.21 t0.21 0.49 l0 7.56 q0 2.92 -1.78 4.75 t-4.57 1.83 t-4.57 -1.83 t-1.78 -4.75 l0 -7.56 q0 -0.28 0.21 -0.49 t0.49 -0.21 l1.5 0 q0.28 0 0.49 0.21 t0.21 0.49 l0 7.6 q0 1.86 1.06 2.84 q0.9 0.84 2.38 0.84 t2.4 -0.84 q1.06 -1 1.06 -2.84 l0 -7.6 q0 -0.28 0.2 -0.49 t0.48 -0.21 l1.52 0 z M180.168 5.5 q1.24 0.52 2.18 1.48 q2.08 2.12 2.08 5.36 t-2.08 5.36 q-0.94 0.96 -2.18 1.48 q-1.2 0.5 -2.54 0.5 l-5.6 0 q-0.28 0 -0.49 -0.21 t-0.21 -0.49 l0 -13.28 q0 -0.28 0.21 -0.49 t0.49 -0.21 l5.6 0 q1.3 0 2.54 0.5 z M174.228 7.82 l0 9.04 l3.34 0 q1.76 0 2.86 -1.29 t1.1 -3.23 t-1.1 -3.23 t-2.86 -1.29 l-3.34 0 z M190.816 5 q0.28 0 0.49 0.21 t0.21 0.49 l0 13.28 q0 0.28 -0.21 0.49 t-0.49 0.21 l-1.5 0 q-0.28 0 -0.49 -0.21 t-0.21 -0.49 l0 -13.28 q0 -0.28 0.21 -0.49 t0.49 -0.21 l1.5 0 z M203.124 5 q3.28 0 5.38 2.2 q2.06 2.16 2.06 5.3 t-2.06 5.3 q-2.1 2.2 -5.38 2.2 t-5.38 -2.2 q-2.06 -2.16 -2.06 -5.3 t2.06 -5.3 q2.1 -2.2 5.38 -2.2 z M203.124 17.14 q2.06 0 3.32 -1.32 q1.22 -1.28 1.22 -3.31 t-1.24 -3.34 t-3.3 -1.31 t-3.3 1.31 t-1.24 3.34 t1.22 3.31 q1.26 1.32 3.32 1.32 z" fill="url(&quot;#SvgjsLinearGradient1011&quot;)"></path></g></svg>